<svg height="512" viewBox="0 0 40 60" width="512" style="fill:#fff;" xmlns="http://www.w3.org/2000/svg"><g id="015---App-Installs"><path id="Shape" d="m35 60c2.7600532-.0033061 4.9966939-2.2399468 5-5v-50c-.0033061-2.76005315-2.2399468-4.99669388-5-5h-30c-2.76005315.00330612-4.99669388 2.23994685-5 5v50c.00330612 2.7600532 2.23994685 4.9966939 5 5zm3-10h-36v-40h36zm-33-48h30c1.6568542 0 3 1.34314575 3 3v3h-36v-3c0-1.65685425 1.34314575-3 3-3zm-3 53v-3h36v3c0 1.6568542-1.3431458 3-3 3h-30c-1.65685425 0-3-1.3431458-3-3z"/><path id="Shape" d="m7 46h26c1.6568542 0 3-1.3431458 3-3v-26c0-1.6568542-1.3431458-3-3-3h-26c-1.65685425 0-3 1.3431458-3 3v26c0 1.6568542 1.34314575 3 3 3zm-1-29c0-.5522847.44771525-1 1-1h26c.5522847 0 1 .4477153 1 1v26c0 .5522847-.4477153 1-1 1h-26c-.55228475 0-1-.4477153-1-1z"/><path id="Path" d="m24 6h1c.5522847 0 1-.44771525 1-1s-.4477153-1-1-1h-1c-.5522847 0-1 .44771525-1 1s.4477153 1 1 1z"/><path id="Path" d="m19 56h2c.5522847 0 1-.4477153 1-1s-.4477153-1-1-1h-2c-.5522847 0-1 .4477153-1 1s.4477153 1 1 1z"/><path id="Path" d="m15 6h5c.5522847 0 1-.44771525 1-1s-.4477153-1-1-1h-5c-.5522847 0-1 .44771525-1 1s.4477153 1 1 1z"/><path id="Path" d="m13 36h14c1.1045695 0 2-.8954305 2-2v-2c0-.5522847-.4477153-1-1-1s-1 .4477153-1 1v2h-14v-2c0-.5522847-.4477153-1-1-1s-1 .4477153-1 1v2c0 1.1045695.8954305 2 2 2z"/><path id="Path" d="m19.293 31.707c.3904999.3903819 1.0235001.3903819 1.414 0l2-2c.3789722-.3923789.3735524-1.0160848-.0121814-1.4018186s-1.0094397-.3911536-1.4018186-.0121814l-.293.293v-7.586c0-.5522847-.4477153-1-1-1s-1 .4477153-1 1v7.586l-.293-.293c-.3923789-.3789722-1.0160848-.3735524-1.4018186.0121814s-.3911536 1.0094397-.0121814 1.4018186z"/><path id="Path" d="m25 38h-10c-.5522847 0-1 .4477153-1 1s.4477153 1 1 1h10c.5522847 0 1-.4477153 1-1s-.4477153-1-1-1z"/></g></svg>