<?xml version="1.0" encoding="utf-8"?>
<!-- Generator: Adobe Illustrator 16.0.0, SVG Export Plug-In . SVG Version: 6.00 Build 0)  -->
<!DOCTYPE svg PUBLIC "-//W3C//DTD SVG 1.1//EN" "http://www.w3.org/Graphics/SVG/1.1/DTD/svg11.dtd">
<svg version="1.1" id="Layer_1" xmlns="http://www.w3.org/2000/svg" xmlns:xlink="http://www.w3.org/1999/xlink" x="0px" y="0px"
	 width="512px" height="512px" viewBox="0 0 512 512" enable-background="new 0 0 512 512" xml:space="preserve">
<g>
	<title  class="active-path" style="">Application Settings</title>
	<path fill="#027CCA" d="M99.298,508h182.444c28.955-0.032,52.419-23.497,52.452-52.452v-61.575h12.553
		c3.524,0,6.474-2.677,6.811-6.185l2.28-23.642c9.88-2.622,19.346-6.606,28.128-11.836l18.15,15.03
		c2.72,2.252,6.705,2.065,9.201-0.432l27.119-27.119c2.496-2.497,2.683-6.481,0.431-9.2l-15.065-18.192
		c5.212-8.782,9.204-18.231,11.868-28.091l23.308-2.274c3.504-0.343,6.177-3.288,6.177-6.811v-38.445
		c0-3.524-2.679-6.472-6.186-6.81l-23.641-2.28c-2.623-9.879-6.607-19.346-11.836-28.128l15.03-18.149
		c2.24-2.706,2.067-6.67-0.4-9.17l-26.775-27.119c-2.493-2.527-6.505-2.728-9.237-0.463l-18.191,15.065
		c-8.781-5.211-18.229-9.204-28.086-11.867l-2.281-23.645c-0.338-3.504-3.282-6.179-6.804-6.182h-12.553V56.453
		C334.161,27.498,310.697,4.033,281.742,4H99.298C70.343,4.033,46.879,27.498,46.846,56.453v399.095
		C46.879,484.502,70.343,507.967,99.298,508z M342.683,154.017c0.286,2.963,2.456,5.401,5.365,6.031
		c11.662,2.595,22.758,7.278,32.752,13.824c2.508,1.617,5.774,1.423,8.073-0.48l17.14-14.2l18.023,18.254l-14.245,17.208
		c-1.928,2.327-2.101,5.643-0.425,8.157c6.577,9.939,11.245,21.016,13.767,32.664c0.631,2.908,3.069,5.075,6.031,5.359l22.307,2.15
		v26.027l-21.972,2.153c-2.958,0.289-5.393,2.455-6.022,5.36c-2.595,11.66-7.277,22.756-13.822,32.751
		c-1.617,2.507-1.424,5.772,0.479,8.071l14.22,17.173l-18.31,18.311l-17.171-14.221c-2.329-1.927-5.645-2.099-8.159-0.423
		c-9.94,6.575-21.017,11.243-32.666,13.767c-2.907,0.631-5.074,3.069-5.358,6.031l-2.155,22.305h-26.019l-2.15-22.307
		c-0.285-2.962-2.452-5.4-5.36-6.031c-11.661-2.595-22.757-7.278-32.751-13.823c-2.507-1.617-5.774-1.424-8.071,0.48l-17.173,14.22
		l-18.315-18.311l14.221-17.172c1.927-2.327,2.099-5.643,0.423-8.157c-6.576-9.939-11.245-21.017-13.766-32.664
		c-0.631-2.909-3.07-5.075-6.031-5.36l-22.306-2.149V242.99l22.306-2.15c2.961-0.285,5.4-2.452,6.031-5.36
		c2.594-11.663,7.277-22.76,13.823-32.755c1.618-2.507,1.424-5.773-0.479-8.071l-14.221-17.173l18.311-18.311l17.172,14.22
		c2.327,1.927,5.645,2.1,8.159,0.423c9.939-6.576,21.017-11.244,32.666-13.766c2.907-0.631,5.073-3.069,5.358-6.031l2.154-22.306
		h26.019L342.683,154.017z M99.298,17.683h182.444c21.401,0.024,38.744,17.368,38.769,38.77v15.963h-15.964
		c-3.778,0-6.841,3.063-6.841,6.842s3.063,6.842,6.841,6.842h15.964v31.928h-12.21c-3.524,0-6.472,2.677-6.811,6.185l-2.28,23.642
		c-9.878,2.623-19.345,6.606-28.126,11.836l-18.15-15.031c-2.719-2.252-6.706-2.064-9.202,0.432l-27.119,27.119
		c-2.496,2.497-2.683,6.482-0.431,9.201l15.065,18.192c-5.211,8.78-9.204,18.229-11.868,28.085l-23.644,2.281
		c-3.508,0.338-6.185,3.286-6.185,6.81v38.447c0,3.522,2.676,6.472,6.185,6.811l23.64,2.28c2.625,9.879,6.609,19.346,11.838,28.128
		l-15.031,18.149c-2.252,2.719-2.065,6.705,0.431,9.201l27.12,27.12c2.496,2.496,6.482,2.684,9.202,0.432l18.191-15.066
		c8.782,5.212,18.232,9.202,28.091,11.864l2.28,23.645c0.338,3.506,3.282,6.182,6.804,6.185h12.21v18.244H60.529V86.1h185.864
		c3.778,0,6.841-3.063,6.841-6.842s-3.063-6.842-6.841-6.842l0,0H60.529V56.453C60.554,35.051,77.896,17.708,99.298,17.683z
		 M60.529,425.9h259.981v29.647c-0.024,21.401-17.367,38.745-38.769,38.769H99.298c-21.402-0.024-38.745-17.367-38.769-38.769V425.9
		z"/>
	<path fill="#027CCA" d="M268.851,86.1h12.674c3.779,0,6.842-3.063,6.842-6.842s-3.063-6.842-6.842-6.842h-12.674
		c-3.778,0-6.842,3.063-6.842,6.842S265.072,86.1,268.851,86.1z"/>
	<path fill="#027CCA" d="M190.52,484.055c13.225,0,23.946-10.722,23.946-23.946s-10.721-23.945-23.946-23.945
		c-13.225,0-23.946,10.721-23.946,23.945C166.589,473.327,177.301,484.04,190.52,484.055z M190.52,449.846
		c5.667,0,10.263,4.595,10.263,10.263s-4.595,10.263-10.263,10.263c-5.668,0-10.262-4.595-10.262-10.263
		C180.264,454.443,184.855,449.853,190.52,449.846z"/>
	<path fill="#027CCA" d="M245.829,256c0,45.119,36.576,81.696,81.695,81.696s81.696-36.577,81.696-81.696
		s-36.577-81.696-81.696-81.696l0,0C282.427,174.355,245.879,210.902,245.829,256z M327.524,187.987
		c37.563,0,68.013,30.451,68.013,68.013c0,37.563-30.449,68.014-68.013,68.014c-37.563,0-68.013-30.451-68.013-68.014
		C259.555,218.455,289.979,188.03,327.524,187.987z"/>
	<path fill="#027CCA" d="M313.697,280.369c2.658,2.595,6.901,2.595,9.56,0l39.891-38.948c2.721-2.622,2.801-6.953,0.179-9.674
		c-2.622-2.72-6.953-2.8-9.674-0.178c-0.021,0.021-0.042,0.041-0.063,0.062l-35.112,34.279l-17.362-16.95
		c-2.722-2.622-7.052-2.543-9.675,0.177c-2.599,2.696-2.548,6.981,0.116,9.615L313.697,280.369z"/>
	<path fill="#027CCA" d="M168.199,234.335h-9.453c-3.778,0-6.841,3.063-6.841,6.841c0,3.778,3.063,6.842,6.841,6.842h9.453
		c3.778,0,6.841-3.063,6.841-6.842C175.041,237.398,171.978,234.335,168.199,234.335z"/>
	<path fill="#027CCA" d="M87.24,248.018h41.251c3.779,0,6.842-3.063,6.842-6.842c0-3.778-3.063-6.841-6.842-6.841H87.24
		c-3.778,0-6.842,3.063-6.842,6.841C80.398,244.955,83.461,248.018,87.24,248.018z"/>
	<path fill="#027CCA" d="M168.199,291.349h-43.661c-3.778,0-6.842,3.063-6.842,6.842s3.063,6.841,6.842,6.841h43.661
		c3.778,0,6.841-3.063,6.841-6.841S171.978,291.349,168.199,291.349z"/>
	<path fill="#027CCA" d="M87.24,305.031h7.043c3.779,0,6.841-3.063,6.841-6.841s-3.063-6.842-6.841-6.842H87.24
		c-3.778,0-6.842,3.063-6.842,6.842S83.461,305.031,87.24,305.031z"/>
	<path fill="#027CCA" d="M163.638,355.204c0,3.777,3.063,6.841,6.841,6.841h31.928c3.778,0,6.842-3.063,6.842-6.841
		c0-3.778-3.063-6.842-6.842-6.842h-31.928C166.701,348.362,163.638,351.426,163.638,355.204z"/>
	<path fill="#027CCA" d="M139.894,348.362H87.24c-3.778,0-6.842,3.063-6.842,6.842c0,3.777,3.063,6.841,6.842,6.841h52.654
		c3.779,0,6.841-3.063,6.841-6.841C146.735,351.426,143.673,348.362,139.894,348.362z"/>
	<path fill="#027CCA" d="M136.271,186.443h43.33c3.778,0,6.842-3.063,6.842-6.842c0-3.778-3.063-6.841-6.842-6.841h-43.33
		c-3.778,0-6.842,3.063-6.842,6.841C129.43,183.38,132.493,186.443,136.271,186.443z"/>
	<path fill="#027CCA" d="M87.24,186.443h18.446c3.779,0,6.842-3.063,6.842-6.842c0-3.778-3.063-6.841-6.842-6.841H87.24
		c-3.778,0-6.842,3.063-6.842,6.841C80.398,183.38,83.461,186.443,87.24,186.443z"/>
</g>
</svg>
