<?xml version="1.0" encoding="utf-8"?>
<!-- Generator: Adobe Illustrator 16.0.0, SVG Export Plug-In . SVG Version: 6.00 Build 0)  -->
<!DOCTYPE svg PUBLIC "-//W3C//DTD SVG 1.1//EN" "http://www.w3.org/Graphics/SVG/1.1/DTD/svg11.dtd">
<svg version="1.1" id="svg31911" xmlns:svg="http://www.w3.org/2000/svg"
	 xmlns="http://www.w3.org/2000/svg" xmlns:xlink="http://www.w3.org/1999/xlink" x="0px" y="0px" width="512px" height="512px"
	 viewBox="0 0 512 512" enable-background="new 0 0 512 512" xml:space="preserve">
<g>
	<g id="layer1" transform="translate(0 -280.067)">
		<path id="path13423" vector-effect="none" fill="#027CCA" d="M97.017,285.056c-13.76,0-25.083,11.323-25.083,25.083v267.734
			c0,11.167,16.75,11.167,16.75,0V368.755h334.618v209.118c-0.254,11.409,16.989,11.409,16.733,0V310.14
			c0-13.76-11.308-25.083-25.067-25.083H97.017z M97.017,301.806h317.95c4.779,0,8.334,3.554,8.334,8.334v41.866H88.683V310.14
			C88.683,305.36,92.237,301.806,97.017,301.806z M113.767,318.523c-4.621,0-8.367,3.746-8.367,8.367
			c0,4.62,3.746,8.368,8.367,8.368c4.621,0,8.367-3.746,8.367-8.368C122.133,322.269,118.387,318.523,113.767,318.523z
			 M147.233,318.523c-4.621,0-8.367,3.746-8.367,8.367c0,4.62,3.746,8.368,8.367,8.368c4.621,0,8.367-3.746,8.367-8.368
			C155.6,322.269,151.854,318.523,147.233,318.523z M180.7,318.523c-4.621,0-8.367,3.746-8.367,8.367
			c0,4.62,3.746,8.368,8.367,8.368s8.367-3.746,8.367-8.368C189.067,322.269,185.321,318.523,180.7,318.523z M297.408,318.539
			c-11.296,0.768-10.525,17.01,0.393,16.734h100.433c10.911-0.253,10.911-16.492,0-16.734H297.408z M30.133,335.274
			C16.372,335.274,5,346.581,5,360.341v301.216c0,13.762,11.372,25.084,25.133,25.084h451.783c13.761,0,25.084-11.322,25.084-25.084
			V360.341c0-13.76-11.323-25.067-25.084-25.067h-16.733c-11.405-0.253-11.405,16.986,0,16.733h16.733
			c4.78,0,8.334,3.554,8.334,8.334v242.666H21.733V360.341c0-4.78,3.62-8.334,8.399-8.334h16.668
			c11.406,0.252,11.406-16.987,0-16.733H30.133z M281.198,402.06c-3.679-0.025-6.941,2.355-8.04,5.867L222.942,558.51
			c-3.541,10.589,12.343,15.899,15.884,5.311l50.216-150.633C290.936,407.771,286.937,402.099,281.198,402.06z M317.573,450.43
			l42.487,35.444l-42.487,35.395c-9.078,7.107,2.132,20.517,10.736,12.844l50.151-41.817c4.004-3.345,4.004-9.498,0-12.843
			L328.31,437.57c-1.499-1.284-3.403-1.996-5.801-1.991c-7.909,0.692-10.776,10.126-4.936,14.853V450.43z M188.854,435.593
			c-1.885,0.063-3.693,0.758-5.131,1.976l-50.2,41.883c-4.004,3.345-4.004,9.499,0,12.843l50.2,41.817
			c8.634,8.042,20.164-5.816,10.687-12.844l-42.487-35.395l42.487-35.444C200.592,445.367,196.84,435.348,188.854,435.593
			L188.854,435.593z M21.733,619.756H490.25v41.801c0,4.779-3.554,8.334-8.334,8.334H30.133c-4.78,0-8.399-3.555-8.399-8.334
			V619.756z M273.19,636.473l-34.332,0.017c-10.666,1.275-9.949,16.383,0.392,16.668h33.483
			C284.224,654.173,285.18,636.705,273.19,636.473z M209.068,702.721c-3.359-0.064-6.434,1.872-7.811,4.936
			c-4.029,8.642-11.248,18.731-23.711,29.185h-13.58c-13.761,0-25.067,11.389-25.067,25.148v16.668
			c-0.017,4.62,3.713,8.382,8.334,8.4H364.75c4.646,0.017,8.417-3.753,8.399-8.4V761.99c0-13.76-11.372-25.148-25.133-25.148
			h-13.563c-12.463-10.452-19.684-20.544-23.711-29.185c-1.417-3.144-4.614-5.096-8.057-4.919
			c-5.977,0.316-9.711,6.604-7.108,11.994c3.263,6.995,8.242,14.499,14.952,22.109H201.47c6.709-7.61,11.69-15.114,14.952-22.109
			C219.078,709.245,215.163,702.85,209.068,702.721z M163.967,753.591h184.05c4.779,0,8.399,3.62,8.399,8.399v8.334H155.633v-8.334
			C155.633,757.212,159.187,753.591,163.967,753.591L163.967,753.591z"/>
	</g>
</g>
</svg>
