<svg id="Layer_5" enable-background="new 0 0 64 64" height="512" viewBox="0 0 64 64" width="512" xmlns="http://www.w3.org/2000/svg"><g><path d="m31 20.906v2.094h2v-2.094c2.275-.437 4-2.436 4-4.837 0-2.267-1.536-4.233-3.734-4.783l-2.046-.512c-1.307-.327-2.22-1.496-2.22-2.843 0-1.617 1.314-2.931 2.931-2.931h.139c1.616 0 2.93 1.314 2.93 2.931v1.069h2v-1.069c0-2.4-1.725-4.399-4-4.837v-2.094h-2v2.094c-2.275.437-4 2.436-4 4.837 0 2.267 1.536 4.233 3.734 4.783l2.046.512c1.307.327 2.22 1.496 2.22 2.844 0 1.616-1.314 2.93-2.931 2.93h-.139c-1.616 0-2.93-1.314-2.93-2.931v-2.069h-2v2.069c0 2.4 1.725 4.4 4 4.837z"/><path d="m41 12.431v-4.431h4v-2h-6v7.912l.715.212c11.354 3.382 19.285 14.022 19.285 25.876 0 8.205-3.654 15.839-10.04 21h-4.655c2.834-1.992 4.695-5.28 4.695-9 0-2.411-.789-4.636-2.109-6.451 2.584-2.081 4.109-5.196 4.109-8.549 0-6.065-4.935-11-11-11-5.667 0-10.343 4.308-10.934 9.82-1.744-1.152-3.828-1.82-6.066-1.82-6.065 0-11 4.935-11 11s4.935 11 11 11c1.53 0 3.04-.331 4.439-.953.705 2.438 2.228 4.527 4.257 5.953h-16.656c-6.386-5.161-10.04-12.795-10.04-21 0-11.854 7.931-22.494 19.285-25.876l.715-.212v-7.912h-6v2h4v4.431c-11.813 3.858-20 15.087-20 27.569 0 8.937 4.035 17.241 11.071 22.785l.273.215h35.313l.272-.215c7.036-5.544 11.071-13.848 11.071-22.785 0-12.482-8.187-23.711-20-27.569zm-1 15.569c4.963 0 9 4.037 9 9 0 2.769-1.274 5.339-3.427 7.042-1.133-1.079-2.494-1.916-4.005-2.436.852-.495 1.432-1.407 1.432-2.46 0-1.088-.604-2.065-1.578-2.553l-1.949-.975c-.292-.145-.473-.438-.473-.764 0-.47.384-.854.854-.854h.291c.471 0 .855.384.855.854v.146h2v-.146c0-1.275-.845-2.344-2-2.709v-2.145h-2v2.145c-1.155.366-2 1.435-2 2.709 0 1.088.604 2.065 1.578 2.553l1.949.975c.292.145.473.438.473.764 0 .47-.384.854-.854.854h-.291c-.471 0-.855-.384-.855-.854v-.146h-2v.146c0 .718.275 1.367.714 1.869-1.479.038-2.885.366-4.164.934-.489-1.713-1.365-3.236-2.528-4.48-.009-.156-.022-.31-.022-.469 0-4.963 4.037-9 9-9zm-17 26c-4.963 0-9-4.037-9-9s4.037-9 9-9c4.234 0 7.813 2.891 8.75 6.959-2.866 1.988-4.75 5.297-4.75 9.041 0 .339.021.673.051 1.004-1.261.641-2.643.996-4.051.996zm6-2c0-4.963 4.037-9 9-9s9 4.037 9 9-4.037 9-9 9-9-4.037-9-9z"/><path d="m8.072 32.806 1.914.582c.203-.668.444-1.345.715-2.011l-1.851-.754c-.295.722-.556 1.456-.778 2.183z"/><path d="m19.62 20.631-1.084-1.682c-3.677 2.369-6.692 5.686-8.722 9.59l1.775.922c1.869-3.596 4.646-6.649 8.031-8.83z"/><path d="m46.704 19.805-1.18 1.615c.506.369 1.009.771 1.496 1.195l1.313-1.51c-.529-.459-1.077-.897-1.629-1.3z"/><path d="m53.613 27.498c-.349-.6-.725-1.19-1.119-1.756l-1.641 1.145c.363.521.71 1.063 1.029 1.615z"/><path d="m48.414 23.931c.441.452.872.933 1.279 1.427l1.543-1.273c-.443-.536-.911-1.058-1.391-1.55z"/><path d="m39 47.145v-2.145h-2v2.145c-1.155.366-2 1.435-2 2.709 0 1.088.604 2.065 1.578 2.553l1.949.975c.292.145.473.438.473.764 0 .47-.384.854-.854.854h-.291c-.471 0-.855-.384-.855-.854v-.146h-2v.146c0 1.275.845 2.344 2 2.709v2.145h2v-2.145c1.155-.366 2-1.435 2-2.709 0-1.088-.604-2.065-1.578-2.553l-1.949-.975c-.292-.145-.473-.438-.473-.764 0-.47.384-.854.854-.854h.291c.471 0 .855.384.855.854v.146h2v-.146c0-1.274-.845-2.343-2-2.709z"/><path d="m24 40.145v-2.145h-2v2.145c-1.155.366-2 1.435-2 2.709 0 1.088.604 2.065 1.578 2.553l1.949.975c.292.145.473.438.473.764 0 .47-.384.854-.854.854h-.291c-.471 0-.855-.384-.855-.854v-.146h-2v.146c0 1.275.845 2.344 2 2.709v2.145h2v-2.145c1.155-.366 2-1.435 2-2.709 0-1.088-.604-2.065-1.578-2.553l-1.949-.975c-.292-.145-.473-.438-.473-.764 0-.47.384-.854.854-.854h.291c.471 0 .855.384.855.854v.146h2v-.146c0-1.274-.845-2.343-2-2.709z"/></g></svg>