<?xml version="1.0" encoding="iso-8859-1"?>
<!-- Generator: Adobe Illustrator 19.0.0, SVG Export Plug-In . SVG Version: 6.00 Build 0)  -->
<svg version="1.1" id="Capa_1" xmlns="http://www.w3.org/2000/svg" xmlns:xlink="http://www.w3.org/1999/xlink" x="0px" y="0px"
	 viewBox="0 0 508.063 508.063" style="enable-background:new 0 0 508.063 508.063;" xml:space="preserve">
<g>
	<g>
		<path d="M507.93,355.082c-2.9-61.3-54.6-109.3-117.6-109.3h-87.1v-32.8h-41v-49.2c0-22.6,18.4-41,41-41
			c31.6,0,57.4-25.7,57.4-57.4v-32.6h-16.4v32.8c0,22.6-18.4,41-41,41c-31.6,0-57.4,25.7-57.4,57.4v49h-41v32.8h-90.1
			c-49.9,0-94.7,32.2-109.1,78.2c-11.4,36.6-5.3,74.7,16.6,104.5c21.6,29.3,56.1,46.8,92.4,46.8c49.5,0,93.2-31.6,108.8-78.5
			c1.6-4.9,7-21.4,30.4-21.4c22.6,0,29,16.5,30.7,21.4c15.6,47,59.3,78.5,108.8,78.5c31.7,0,61.2-12.6,83-35.5
			C498.23,416.882,509.43,386.782,507.93,355.082z M221.23,229.382h65.6v16.4h-65.6V229.382z M464.43,428.382
			c-18.7,19.6-44,30.5-71.2,30.5c-42.4,0-79.9-27.1-93.2-67.3c-2.5-7.6-11.9-32.9-46.1-32.9c-34.5,0-43.6,25.3-46.1,32.9
			c-13.4,40.3-50.8,67.3-93.2,67.3c-31.1,0-60.8-15-79.2-40.1c-18.8-25.6-24-58.3-14.2-89.9c12.2-39.3,50.6-66.7,93.4-66.7h275.6
			c54.3,0,98.8,41.1,101.2,93.6C492.83,382.982,483.23,408.782,464.43,428.382z"/>
	</g>
</g>
<g>
	<g>
		<path d="M131.13,335.982v-32.8h-49.2v32.8h-32.8v49.2h32.8v32.8h49.2v-32.8h32.8v-49.2H131.13z M147.53,368.682h-32.8v32.8h-16.4
			v-32.8h-32.8v-16.4h32.8v-32.8h16.4v32.8h32.8V368.682z"/>
	</g>
</g>
<g>
	<g>
		<path d="M426.13,335.982v-32.8h-49.2v32.8h-32.8v49.2h32.8v32.8h49.2v-32.8h32.8v-49.2H426.13z M442.43,368.682h-32.8v32.8h-16.4
			v-32.8h-32.8v-16.4h32.8v-32.8h16.4v32.8h32.8V368.682z"/>
	</g>
</g>
<g>
	<g>
		<rect x="245.83" y="286.782" width="16.4" height="49.2"/>
	</g>
</g>
<g>
</g>
<g>
</g>
<g>
</g>
<g>
</g>
<g>
</g>
<g>
</g>
<g>
</g>
<g>
</g>
<g>
</g>
<g>
</g>
<g>
</g>
<g>
</g>
<g>
</g>
<g>
</g>
<g>
</g>
</svg>
