<svg height="512" viewBox="0 0 60 60" width="512" xmlns="http://www.w3.org/2000/svg"><g id="041---Improved-Process"><path id="Path" d="m58.451 26.829-4.857-1.223c-.2275727-1.2267617-.5553372-2.4328013-.98-3.606l3.612-3.481c.6306823-.6154823.7882497-1.5693931.389-2.355-.208-.4-.417-.79-.645-1.176l-.19-.32c-.16-.272-.318-.542-.491-.813-.4844137-.7336086-1.3888578-1.0680181-2.234-.826l-4.816 1.379c-.8129123-.9479154-1.698243-1.8312401-2.648-2.642l1.381-4.821c.239007-.84801832-.0983145-1.75320491-.834-2.238-.264-.169-.534-.327-.806-.487l-.321-.191c-.385-.227-.78-.436-1.186-.65-.7854221-.391199-1.7336758-.22944996-2.345.4l-3.473 3.6c-1.1806333-.42025812-2.3932284-.74464239-3.626-.97l-1.214-4.873c-.21439-.84722167-.9562022-1.45559686-1.829-1.5-.893-.043-1.787-.043-2.672 0-.878788.04400988-1.6248512.65882125-1.836 1.513l-1.224 4.857c-1.2268108.22735758-2.4328678.55512683-3.606.98l-3.482-3.612c-.6146879-.63141576-1.5688547-.78909244-2.354-.389-.4.208-.79.417-1.176.645l-.323.192c-.27.158-.539.316-.81.489-.732292.48545723-1.0663393 1.38892172-.826 2.234l1.38 4.816c-.9489564.8121222-1.8326728 1.6975104-2.643 2.648l-4.821-1.381c-.8475152-.2393921-1.75247504.0975912-2.237.833-.175.274-.339.552-.5.832l-.174.295c-.225.379-.43.766-.651 1.185-.39385249.7856885-.23186919 1.7361256.4 2.347l3.6 3.474c-.42040162 1.1802474-.7447896 2.3925221-.97 3.625l-4.877 1.214c-.8477436.2142112-1.45634251.9567018-1.5 1.83-.026.445-.036.892-.036 1.337s.01.892.031 1.336c.0468656.8788094.66268103 1.6237147 1.517 1.835l4.859 1.223c.22582088 1.2270575.55328238 2.4332129.979 3.606l-3.611 3.481c-.63432953.6231369-.78657893 1.5877891-.375 2.376.205.389.41.776.634 1.154l.175.3c.164.28.328.558.5.832.1885509.3098111.53006463.4932506.89247601.4793815s.6889067-.2228727.8532285-.5461879c.1643218-.3233151.14071003-.7102572-.06170451-1.0111936-.161-.251-.311-.508-.462-.767l-.18-.306c-.208-.347-.4-.7-.586-1.068l3.61-3.481c.55832909-.5449058.74884166-1.3647345.488-2.1-.38221495-1.0749693-.67913383-2.1783841-.888-3.3-.13452629-.7778373-.71588664-1.4027409-1.482-1.593l-4.863-1.2c-.02-.4186667-.03-.8353333-.03-1.25 0-.414.009-.829.032-1.229l4.868-1.212c.76228078-.1897369 1.34096349-.8111543 1.476-1.585.2091804-1.1256705.50676877-2.2331004.89-3.312.26059144-.7354575.06968151-1.5553161-.489-2.1l-3.611-3.487c.188-.358.376-.716.584-1.064l.18-.3c.151-.259.3-.516.465-.755l4.816 1.379c.7510661.2153232 1.5587532-.0264361 2.068-.619.7478896-.872389 1.561611-1.6861104 2.434-2.434.5902309-.5081729.8317667-1.312772.619-2.062l-1.394-4.827c.243-.155.491-.3.74-.448l.332-.2c.356-.212.721-.4 1.07-.586l3.48 3.609c.5460063.56148637 1.3695033.75260646 2.107.489 1.0749632-.38223476 2.1783795-.67915406 3.3-.888.7771915-.13230712 1.4024215-.71200879 1.593-1.477l1.2-4.863c.828-.039 1.669-.041 2.471 0l1.21 4.871c.1898478.76202807.8113073 1.34035785 1.585 1.475 1.1261468.20897055 2.2339515.50690416 3.313.891.7356495.26034135 1.5555381.06903402 2.1-.49l3.461-3.622c.365.193.73.384 1.084.595l.331.2c.25.147.5.293.73.451l-1.375 4.811c-.2148964.7507599.0268256 1.5579318.619 2.067.8724028.7482351 1.6861233 1.5622899 2.434 2.435.5069848.5920546 1.3129509.8336099 2.062.618l4.822-1.393c.156.244.3.493.449.743l.194.33c.212.355.4.72.586 1.069l-3.609 3.48c-.5614864.5460063-.7526065 1.3695033-.489 2.107.3823578 1.0749248.6792797 2.1783509.888 3.3.1315105.780766.7135751 1.4091759 1.482 1.6l4.863 1.2c.0193333.408.029.819.029 1.233s-.01.828-.031 1.229l-4.869 1.212c-.7620281.1898478-1.3403579.8113073-1.475 1.585-.2089706 1.1261468-.5069042 2.2339515-.891 3.313-.2603414.7356495-.069034 1.5555381.49 2.1l3.62 3.465c-.193.365-.384.73-.595 1.084l-.2.331c-.147.25-.293.5-.451.73l-4.809-1.379c-.7507599-.2148964-1.5579318.0268256-2.067.619-.7482351.8724028-1.5622899 1.6861233-2.435 2.434-.589868.5084053-.8310025 1.3129672-.618 2.062l1.393 4.822c-.244.156-.493.3-.743.449l-.33.194c-.355.212-.72.4-1.069.586l-3.48-3.609c-.5460063-.5614864-1.3695033-.7526065-2.107-.489-1.0749248.3823578-2.1783509.6792797-3.3.888-.780766.1315105-1.4091759.7135751-1.6 1.482l-1.2 4.863c-.828.039-1.668.041-2.472 0l-1.202-4.871c-.189616-.7621647-.8111876-1.3405988-1.585-1.475-1.1261171-.2091015-2.2339116-.5070323-3.313-.891-.7356495-.2603414-1.5555381-.069034-2.1.49l-3.461 3.622c-.365-.193-.73-.384-1.084-.595l-.334-.2c-.249-.148-.5-.293-.74-.448-.465576-.2971292-1.0838708-.160576-1.381.305s-.160576 1.0838708.305 1.381c.264.169.533.327.8.485l.325.193c.384.227.779.436 1.185.65.7854709.3908683 1.7335201.2291541 2.345-.4l3.474-3.6c1.180484.4207375 2.3931184.7451323 3.626.97l1.213 4.873c.212231.8493791.9546504 1.4602819 1.829 1.505.4453333.0233333.891.035 1.337.035s.892-.01 1.334-.031c.8798519-.0461365 1.6258732-.6626092 1.837-1.518l1.223-4.857c1.2267617-.2275727 2.4328013-.5553372 3.606-.98l3.481 3.612c.6151688.6312831 1.5694966.7889194 2.355.389.4-.208.79-.417 1.176-.645l.32-.19c.272-.16.542-.318.813-.491.7317677-.4858722 1.0656711-1.3889476.826-2.234l-1.379-4.816c.9479154-.8129123 1.8312401-1.698243 2.642-2.648l4.821 1.381c.8480457.2396776 1.753623-.0977896 2.238-.834.169-.264.327-.534.487-.806l.191-.321c.227-.385.436-.78.65-1.186.392194-.7852749.2303399-1.7341445-.4-2.345l-3.6-3.473c.4202581-1.1806333.7446424-2.3932284.97-3.626l4.873-1.214c.849196-.2125208 1.4599623-.9547743 1.505-1.829.021-.445.031-.893.031-1.338s-.01-.893-.031-1.334c-.0461365-.8798519-.6626092-1.6258732-1.518-1.837z"/><path id="Shape" d="m30 48c8.3626148.0451037 15.6673964-5.6447196 17.6706455-13.7639778s-1.8166422-16.5538509-9.2405151-20.4037173c-7.4238729-3.84986632-16.5186924-2.1125744-22.0008399 4.2025993s-5.9241763 15.5638782-1.0692905 22.3730958l-14.471 14.471c-.56768586.5591592-.8873351 1.3226774-.8873351 2.1195s.31964924 1.5603408.8873351 2.1195c.55946604.5648317 1.32149241.8826058 2.1165.8826058s1.55703396-.3177741 2.1165-.8826058l14.472-14.477c3.0346438 2.1751846 6.6723156 3.3494052 10.406 3.359zm-16-18c-.0334945-7.3927461 4.9801195-13.8549407 12.1492952-15.659584 7.1691756-1.8046433 14.64478 1.5137332 18.1153405 8.0412922s2.0409215 14.5806588-3.4643884 19.5147625c-5.50531 4.9341037-13.6663159 5.4765667-19.7762473 1.3145293l2.166-2.166c2.0408346 1.279446 4.4012693 1.9570745 6.81 1.955 7.1797017 0 13-5.8202983 13-13s-5.8202983-13-13-13-13 5.8202983-13 13c-.0024514 2.409237.6755712 4.7701838 1.956 6.811l-2.166 2.166c-1.8113894-2.6437733-2.7836919-5.7722178-2.79-8.977zm19.9999989 7c1.6568553 0 3.0000011-1.3431458 3-3v-8c.0000011-1.6568542-1.3431447-3-3-3h-8c-1.6568531 0-2.9999989 1.3431458-3 3 .0000011 1.6568542 1.3431469 3 3 3h.7670011l-6.351 6.351c-.9288264-1.6303735-1.4168549-3.4746111-1.4160011-5.351.0000011-6.0751322 4.9248689-11 11-11 6.0751333 0 11.0000011 4.9248678 11 11 .0000011 6.0751322-4.9248667 11-11 11-1.8757458.0007838-3.71932-.4872515-5.3489989-1.416l6.349-6.35-.0000011.766c.0000011 1.6568542 1.3431469 3 3 3zm-30.2949989 20.7c-.39003745.3877236-1.01996255.3877236-1.41 0-.18914619-.183777-.2958706-.4362762-.2958706-.7s.10672441-.516223.2958706-.7l27.589-27.59c.2875433-.2851944.3746804-.715662.2206898-1.0902336-.1539905-.3745716-.5187-.61928-.9236898-.6197664h-3.181c-.5522847 0-1-.4477153-1-1s.4477153-1 1-1h8c.5522847 0 1 .4477153 1 1v8c0 .5522847-.4477153 1-1 1s-1-.4477153-1-1v-3.18c-.0000863-.4043959-.2437275-.7689341-.6173454-.923678-.373618-.1547439-.8036603-.0692299-1.0896546.216678z"/></g></svg>