<?xml version="1.0"?>
<svg xmlns="http://www.w3.org/2000/svg" height="512px" viewBox="0 -16 512 511" width="512px"><g><path d="m504.5 398.101562h-9.0625l-.003906-274.136718c0-22.402344-18.226563-40.632813-40.632813-40.632813h-108.503906l4.472656-6.703125c4.15625-6.238281 3.328125-14.617187-1.972656-19.917968l-25.539063-25.539063c-5.304687-5.300781-13.679687-6.128906-19.917968-1.972656l-15.144532 10.097656c-6.386718-3.332031-13.0625-6.097656-19.9375-8.261719l-3.570312-17.84375c-1.46875-7.355468-7.980469-12.691406-15.476562-12.691406h-36.121094c-7.496094 0-14.003906 5.335938-15.476563 12.6875l-3.570312 17.847656c-6.875 2.164063-13.550781 4.933594-19.9375 8.261719l-15.144531-10.097656c-6.238282-4.15625-14.613282-3.328125-19.917969 1.972656l-25.539063 25.542969c-5.300781 5.300781-6.128906 13.675781-1.972656 19.914062l4.472656 6.707032h-58.804687c-22.40625 0-40.632813 18.226562-40.632813 40.632812v154.808594c0 4.144531 3.355469 7.5 7.5 7.5 4.140625 0 7.5-3.355469 7.5-7.5v-154.808594c0-14.136719 11.5-25.632812 25.632813-25.632812h61.28125c-1.953125 4.355468-3.679688 8.816406-5.113281 13.378906l-17.847657 3.566406c-1.257812.253906-2.449219.660156-3.570312 1.1875h-34.75c-4.144531 0-7.5 3.355469-7.5 7.5v274.132812h-18.132813v-89.324218c0-4.140625-3.359375-7.5-7.5-7.5-4.144531 0-7.5 3.359375-7.5 7.5v89.324218h-9.066406c-4.140625 0-7.5 3.359376-7.5 7.5v33.136719c0 22.40625 18.226562 40.632813 40.632812 40.632813h430.734376c22.40625 0 40.632812-18.226563 40.632812-40.632813v-33.136719c0-4.144531-3.359375-7.5-7.5-7.5zm-24.066406-274.136718.003906 274.136718h-18.132812v-274.132812c0-4.144531-3.359376-7.5-7.5-7.5h-84.453126c-1.125-.527344-2.316406-.933594-3.574218-1.1875l-17.84375-3.566406c-1.4375-4.5625-3.160156-9.023438-5.113282-13.382813h110.980469c14.132813 0 25.632813 11.5 25.632813 25.632813zm-359.679688 1.570312c2.785156-.558594 5.015625-2.640625 5.761719-5.378906 2.390625-8.75 5.882813-17.179688 10.378906-25.050781 1.410157-2.464844 1.304688-5.515625-.269531-7.878907l-.382812-.570312c-.003907-.011719-.011719-.019531-.015626-.027344l-12.214843-18.320312c-.207031-.3125-.164063-.726563.097656-.988282l25.539063-25.542968c.261718-.261719.679687-.304688.988281-.097656l18.917969 12.613281c2.363281 1.574219 5.414062 1.679687 7.882812.269531 7.871094-4.496094 16.296875-7.988281 25.046875-10.378906 2.738281-.746094 4.820313-2.980469 5.378906-5.761719l4.457031-22.292969c.074219-.363281.398438-.628906.769532-.628906h36.117187c.371094 0 .695313.265625.769531.628906l4.457032 22.292969c.558594 2.78125 2.640625 5.015625 5.378906 5.761719 8.75 2.390625 17.175781 5.882812 25.046875 10.378906 2.46875 1.40625 5.519531 1.304688 7.882813-.269531l18.917968-12.613281c.308594-.203126.726563-.164063.988282.097656l25.539062 25.542968c.261719.261719.304688.675782.097656.988282l-12.203125 18.304687c-.015625.019531-.027343.039063-.039062.058594l-.367188.554687c-1.578125 2.363282-1.683593 5.414063-.273437 7.878907 4.496094 7.871093 7.988281 16.300781 10.378906 25.050781.746094 2.738281 2.980469 4.820312 5.765625 5.375l22.289063 4.460938c.363281.070312.628906.394531.628906.765624v36.121094c0 .371094-.265625.691406-.628906.765625l-22.289063 4.460938c-2.785156.554687-5.019531 2.636719-5.765625 5.375-2.390625 8.75-5.882812 17.179687-10.378906 25.050781-1.410156 2.464844-1.304688 5.519531.273437 7.878906l12.609375 18.917969c.207032.3125.164063.726563-.097656.988281l-5.824219 5.824219c-10.0625 3.316406-19.175781 8.730469-26.8125 15.746094l-12.808593-8.542969c-2.363282-1.578125-5.414063-1.679688-7.882813-.273438-7.867187 4.496094-16.296875 7.988282-25.046875 10.382813-2.742188.746094-4.820312 2.980469-5.378906 5.765625l-4.457032 22.289062c-.074218.363282-.398437.628907-.769531.628907h-36.117187c-.371094 0-.695313-.265625-.769532-.628907l-4.457031-22.289062c-.554687-2.785156-2.636719-5.019531-5.375-5.765625-8.753906-2.394531-17.179687-5.886719-25.050781-10.382813-2.464844-1.40625-5.515625-1.300781-7.878906.273438l-18.921875 12.613281c-.308594.207031-.722657.164063-.988281-.101562l-25.539063-25.539063c-.261719-.261718-.304687-.679687-.097656-.988281l12.613281-18.917969c1.574219-2.363281 1.679688-5.414062.269531-7.878906-4.496093-7.871094-7.988281-16.300781-10.378906-25.050781-.746094-2.738281-2.976563-4.820313-5.761719-5.378907l-22.289062-4.457031c-.367188-.074219-.632813-.394531-.632813-.765625v-36.121094c0-.371093.265625-.695312.628907-.769531zm234.644532 121.902344c32.40625 0 58.765624 26.363281 58.765624 58.765625s-26.359374 58.765625-58.765624 58.765625c-32.402344 0-58.761719-26.363281-58.761719-58.765625s26.359375-58.765625 58.761719-58.765625zm-290.699219-115.96875h18.132812v35.410156c0 7.496094 5.335938 14.003906 12.6875 15.476563l17.847657 3.570312c2.164062 6.875 4.929687 13.550781 8.261718 19.9375l-10.097656 15.144531c-4.15625 6.238282-3.328125 14.613282 1.972656 19.917969l25.539063 25.539063c5.304687 5.300781 13.679687 6.128906 19.917969 1.972656l15.144531-10.097656c6.386719 3.332031 13.0625 6.097656 19.941406 8.261718l3.566406 17.84375c1.472657 7.355469 7.980469 12.691407 15.476563 12.691407h36.121094c7.496093 0 14.007812-5.335938 15.476562-12.691407l3.570312-17.84375c6.875-2.164062 13.550782-4.929687 19.9375-8.261718l7.316407 4.875c-8.71875 12.113281-13.875 26.957031-13.875 42.988281 0 40.675781 33.089843 73.765625 73.765625 73.765625 40.671875 0 73.765625-33.089844 73.765625-73.765625s-33.09375-73.765625-73.765625-73.765625c-.75 0-1.496094.035156-2.238282.054688.679688-3.890626-.085937-8.015626-2.394531-11.484376l-10.097656-15.144531c3.332031-6.386719 6.097656-13.0625 8.261719-19.9375l17.847656-3.570312c7.351562-1.472657 12.6875-7.980469 12.6875-15.476563v-35.410156h67.835938v266.632812h-382.605469zm231.394531 281.632812-4.53125 18.132813h-71.125l-4.53125-18.132813zm200.90625 25.636719c0 14.132813-11.5 25.632813-25.632812 25.632813h-430.734376c-14.132812 0-25.632812-11.5-25.632812-25.632813v-25.636719h185.445312l6.863282 27.453126c.835937 3.339843 3.835937 5.679687 7.277344 5.679687h82.832031c3.441406 0 6.441406-2.339844 7.273437-5.679687l6.863282-27.453126h185.445312zm0 0" data-original="#000000" class="active-path" data-old_color="#000000" fill="#027CCA"/><path d="m231.148438 189.453125c22.40625 0 40.632812-18.230469 40.632812-40.632813 0-22.40625-18.226562-40.636718-40.632812-40.636718-22.402344 0-40.632813 18.230468-40.632813 40.636718s18.230469 40.632813 40.632813 40.632813zm0-66.269531c14.136718 0 25.632812 11.5 25.632812 25.636718 0 14.132813-11.496094 25.632813-25.632812 25.632813-14.132813 0-25.632813-11.5-25.632813-25.632813 0-14.136718 11.5-25.636718 25.632813-25.636718zm0 0" data-original="#000000" class="active-path" data-old_color="#000000" fill="#027CCA"/><path d="m231.148438 222.585938c40.675781 0 73.769531-33.09375 73.769531-73.769532 0-40.671875-33.09375-73.765625-73.769531-73.765625-40.671876 0-73.765626 33.09375-73.765626 73.765625 0 40.675782 33.09375 73.769532 73.765626 73.769532zm0-132.535157c32.40625 0 58.769531 26.363281 58.769531 58.769531 0 32.402344-26.363281 58.765626-58.769531 58.765626-32.402344 0-58.765626-26.363282-58.765626-58.765626 0-32.40625 26.363282-58.769531 58.765626-58.769531zm0 0" data-original="#000000" class="active-path" data-old_color="#000000" fill="#027CCA"/><path d="m341.117188 335.550781c1.375 1.835938 3.515624 2.9375 5.808593 2.996094.0625.003906.128907.003906.191407.003906 2.222656 0 4.335937-.984375 5.761718-2.699219l41.414063-49.699218c2.652343-3.179688 2.222656-7.910156-.957031-10.5625-3.183594-2.652344-7.914063-2.222656-10.566407.960937l-35.34375 42.414063-12.949219-17.265625c-2.484374-3.3125-7.1875-3.984375-10.5-1.5-3.316406 2.484375-3.984374 7.1875-1.5 10.5zm0 0" data-original="#000000" class="active-path" data-old_color="#000000" fill="#027CCA"/></g> </svg>
