<?xml version="1.0"?>
<svg xmlns="http://www.w3.org/2000/svg" id="Layer_1" data-name="Layer 1" viewBox="0 0 64 64" width="512" height="512"><path d="M32,15A17,17,0,1,0,49,32,17.019,17.019,0,0,0,32,15ZM27,46.125V38.649l-.4-.3A8.984,8.984,0,0,1,27,23.683v8.935l5,2.5,5-2.5V23.683a8.984,8.984,0,0,1,.4,14.667l-.4.3v7.476a14.723,14.723,0,0,1-10,0Zm12-.869V39.634a10.985,10.985,0,0,0-2.6-18.55L35,20.472v10.91l-3,1.5-3-1.5V20.472l-1.4.612A10.985,10.985,0,0,0,25,39.634v5.622a15,15,0,1,1,14,0Z"/><path d="M57,32a25.05,25.05,0,0,0-.716-5.937l4.33-2.5-7-12.125-4.333,2.5A24.988,24.988,0,0,0,39,7.993V3H25V7.993A24.988,24.988,0,0,0,14.719,13.94l-4.333-2.5-7,12.125,4.33,2.5a24.973,24.973,0,0,0,0,11.874l-4.33,2.5,7,12.125,4.333-2.5A24.988,24.988,0,0,0,25,56.007V61H39V56.007A24.988,24.988,0,0,0,49.281,50.06l4.333,2.5,7-12.125-4.33-2.5A25.05,25.05,0,0,0,57,32Zm.882,9.17-5,8.66-3.932-2.27-.543.551A22.98,22.98,0,0,1,37.75,54.275l-.75.194V59H27V54.469l-.75-.194a22.98,22.98,0,0,1-10.658-6.164l-.543-.551-3.932,2.27-5-8.66,3.928-2.27-.206-.746a22.963,22.963,0,0,1,0-12.308l.206-.746L6.118,22.83l5-8.66,3.932,2.27.543-.551A22.98,22.98,0,0,1,26.25,9.725L27,9.531V5H37V9.531l.75.194a22.98,22.98,0,0,1,10.658,6.164l.543.551,3.932-2.27,5,8.66L53.954,25.1l.206.746a22.963,22.963,0,0,1,0,12.308l-.206.746Z"/></svg>
