<?xml version="1.0" encoding="iso-8859-1"?>
<!-- Generator: Adobe Illustrator 19.0.0, SVG Export Plug-In . SVG Version: 6.00 Build 0)  -->
<svg version="1.1" id="Capa_1" xmlns="http://www.w3.org/2000/svg" xmlns:xlink="http://www.w3.org/1999/xlink" x="0px" y="0px"
	 viewBox="0 0 512.001 512.001" style="enable-background:new 0 0 512.001 512.001;" xml:space="preserve">
<g>
	<g>
		<path d="M368.419,0H143.581c-18.838,0-34.164,15.326-34.164,34.164v443.673c0,18.838,15.326,34.164,34.164,34.164h224.838
			c18.838,0,34.164-15.326,34.164-34.164V34.164C402.583,15.326,387.258,0,368.419,0z M387.583,477.836
			c0,10.567-8.597,19.164-19.164,19.164H143.581c-10.567,0-19.164-8.597-19.164-19.164v-32.521h263.166V477.836z M387.583,430.316
			H124.417V63.67h263.166V430.316z M387.583,48.67H124.417V34.164c0-10.567,8.597-19.164,19.164-19.164h224.838
			c10.567,0,19.164,8.597,19.164,19.164V48.67z"/>
	</g>
</g>
<g>
	<g>
		<path d="M276.407,453.124h-40.813c-10.182,0-18.466,8.284-18.466,18.466s8.284,18.466,18.466,18.466h40.813
			c10.182,0,18.466-8.284,18.466-18.466S286.589,453.124,276.407,453.124z M276.407,475.057h-40.813
			c-1.911,0-3.466-1.555-3.466-3.466s1.555-3.466,3.466-3.466h40.813c1.911,0,3.466,1.555,3.466,3.466
			S278.318,475.057,276.407,475.057z"/>
	</g>
</g>
<g>
	<g>
		<rect x="227.49" y="24.915" width="57.03" height="15"/>
	</g>
</g>
<g>
	<g>
		<rect x="296.351" y="24.915" width="14.907" height="15"/>
	</g>
</g>
<g>
	<g>
		<path d="M142.5,81v84.561h227V81H142.5z M354.5,150.561h-197V96h197V150.561z"/>
	</g>
</g>
<g>
	<g>
		<rect x="185" y="185.46" width="177" height="15"/>
	</g>
</g>
<g>
	<g>
		<rect x="150" y="219.35" width="212" height="15"/>
	</g>
</g>
<g>
	<g>
		<rect x="150" y="253.25" width="212" height="15"/>
	</g>
</g>
<g>
	<g>
		<rect x="150" y="287.14" width="212" height="15"/>
	</g>
</g>
<g>
	<g>
		<rect x="150" y="321.5" width="94" height="15"/>
	</g>
</g>
<g>
	<g>
		<rect x="268" y="321.5" width="94" height="15"/>
	</g>
</g>
<g>
	<g>
		<rect x="150" y="352.01" width="94" height="15"/>
	</g>
</g>
<g>
	<g>
		<rect x="268" y="352.01" width="94" height="15"/>
	</g>
</g>
<g>
	<g>
		<rect x="150" y="382.52" width="94" height="15"/>
	</g>
</g>
<g>
	<g>
		<rect x="268" y="382.52" width="94" height="15"/>
	</g>
</g>
<g>
</g>
<g>
</g>
<g>
</g>
<g>
</g>
<g>
</g>
<g>
</g>
<g>
</g>
<g>
</g>
<g>
</g>
<g>
</g>
<g>
</g>
<g>
</g>
<g>
</g>
<g>
</g>
<g>
</g>
</svg>
