<svg id="Layer_1" enable-background="new 0 0 60 60" height="512" viewBox="0 0 60 60" width="512" xmlns="http://www.w3.org/2000/svg"><path d="m26.03 52c-14.336 0-26-11.663-26-26s11.664-26 26-26 26 11.663 26 26-11.664 26-26 26zm0-50c-13.233 0-24 10.767-24 24s10.767 24 24 24 24-10.767 24-24-10.767-24-24-24z"/><path d="m56.03 60c-1.068 0-2.073-.416-2.829-1.172l-12.454-12.454c-.202-.202-.308-.481-.291-.767s.155-.55.38-.727c1.514-1.188 2.884-2.56 4.074-4.074.176-.225.441-.363.727-.38.284-.011.564.088.767.291l12.454 12.454c.756.756 1.172 1.76 1.172 2.828 0 1.069-.417 2.073-1.172 2.828-.755.757-1.76 1.173-2.828 1.173zm-13.089-14.26 11.674 11.674c.756.756 2.073.756 2.829 0 .378-.378.586-.88.586-1.414s-.208-1.036-.586-1.414l-11.674-11.674c-.87 1.013-1.816 1.959-2.829 2.828z"/><path d="m26.03 46c-11.028 0-20-8.972-20-20s8.972-20 20-20 20 8.972 20 20-8.972 20-20 20zm0-38c-9.925 0-18 8.075-18 18s8.075 18 18 18 18-8.075 18-18-8.075-18-18-18z"/><path d="m26.03 29c-2.757 0-5-2.243-5-5s2.243-5 5-5 5 2.243 5 5-2.243 5-5 5zm0-8c-1.654 0-3 1.346-3 3s1.346 3 3 3 3-1.346 3-3-1.346-3-3-3z"/><path d="m26.03 40c-.267 0-.523-.106-.711-.297-.379-.383-9.289-9.455-9.289-15.104 0-5.845 4.486-10.6 10-10.6s10 4.755 10 10.6c0 5.648-8.91 14.721-9.289 15.104-.188.191-.444.297-.711.297zm0-24c-4.411 0-8 3.857-8 8.6 0 3.665 5.245 10.018 8 12.957 2.755-2.941 8-9.296 8-12.957 0-4.743-3.589-8.6-8-8.6z"/></svg>