<svg id="Layer_1" enable-background="new 0 0 480 480" height="512" viewBox="0 0 480 480" width="512" xmlns="http://www.w3.org/2000/svg"><path d="m350 0h-220c-22.056 0-40 17.944-40 40v400c0 22.056 17.944 40 40 40h220c22.056 0 40-17.944 40-40v-400c0-22.056-17.944-40-40-40zm0 464h-220c-13.233 0-24-10.766-24-24v-400c0-13.234 10.767-24 24-24h220c13.233 0 24 10.766 24 24v354h-229c-4.418 0-8 3.582-8 8s3.582 8 8 8h229v30c0 13.234-10.767 24-24 24zm-92-29c0 4.418-3.582 8-8 8h-20c-4.418 0-8-3.582-8-8s3.582-8 8-8h20c4.418 0 8 3.582 8 8zm-79.02-119h122.04c13.682 0 24.345-11.895 22.865-25.489l-10.699-98.276c-1.273-11.693-11.104-20.51-22.865-20.51h-7.406v-14.811c-.001-23.663-19.252-42.914-42.915-42.914s-42.914 19.251-42.914 42.914v14.81h-7.406c-11.762 0-21.591 8.817-22.865 20.511l-10.699 98.276c-1.479 13.576 9.163 25.489 22.864 25.489zm-6.959-23.758 10.699-98.275c.388-3.559 3.379-6.243 6.959-6.243h7.406v12.483c0 4.418 3.582 8 8 8s8-3.582 8-8v-43.293c0-14.84 12.073-26.914 26.914-26.914s26.914 12.073 26.914 26.914v14.811h-34.604c-4.418 0-8 3.582-8 8s3.582 8 8 8h34.604v12.482c0 4.418 3.582 8 8 8s8-3.582 8-8v-12.482h7.406c3.58 0 6.571 2.684 6.959 6.242l10.699 98.275c.45 4.137-2.772 7.758-6.959 7.758h-122.038c-4.158 0-7.411-3.596-6.959-7.758z"/></svg>