<svg height="512" viewBox="0 0 64 64" style="fill:#fff;" width="512" xmlns="http://www.w3.org/2000/svg"><g id="Smartphone-Graphic-Design-App-Mobile_Phone" data-name="Smartphone-Graphic-Design-App-Mobile Phone"><path d="m46 2h-28a6 6 0 0 0 -6 6v48a6 6 0 0 0 6 6h28a6 6 0 0 0 6-6v-48a6 6 0 0 0 -6-6zm4 54a4 4 0 0 1 -4 4h-28a4 4 0 0 1 -4-4v-48a4 4 0 0 1 4-4h28a4 4 0 0 1 4 4z"/><path d="m34 52h-4a3 3 0 0 0 0 6h4a3 3 0 0 0 0-6zm0 4h-4a1 1 0 0 1 0-2h4a1 1 0 0 1 0 2z"/><path d="m25 6h2v2h-2z"/><path d="m29 6h6v2h-6z"/><path d="m34.95 22.68-1-3a1.014 1.014 0 0 0 -.95-.68v-2h-2v2a1.014 1.014 0 0 0 -.95.68l-1 3a1.185 1.185 0 0 0 -.05.32v24a1 1 0 0 0 1 1h4a1 1 0 0 0 1-1v-24a1.185 1.185 0 0 0 -.05-.32zm-1.95 23.32h-2v-4h2zm0-6h-2v-16.84l.72-2.16h.56l.72 2.16z"/><path d="m45 11a3 3 0 0 0 -2.816 2h-20.368a3 3 0 1 0 0 2h3.284a12.986 12.986 0 0 0 -6.062 10.171 3 3 0 1 0 2 .026 10.987 10.987 0 0 1 21.918 0 3 3 0 1 0 2-.026 12.986 12.986 0 0 0 -6.056-10.171h3.288a2.995 2.995 0 1 0 2.812-4zm-26 4a1 1 0 1 1 1-1 1 1 0 0 1 -1 1zm1 14a1 1 0 1 1 1-1 1 1 0 0 1 -1 1zm24 0a1 1 0 1 1 1-1 1 1 0 0 1 -1 1zm1-14a1 1 0 1 1 1-1 1 1 0 0 1 -1 1z"/></g></svg>