<?xml version="1.0" encoding="iso-8859-1"?>
<!-- Generator: Adobe Illustrator 19.0.0, SVG Export Plug-In . SVG Version: 6.00 Build 0)  -->
<svg version="1.1" id="Capa_1" xmlns="http://www.w3.org/2000/svg" xmlns:xlink="http://www.w3.org/1999/xlink" x="0px" y="0px"
	 viewBox="0 0 508 508" style="enable-background:new 0 0 508 508;" xml:space="preserve">
<g>
	<g>
		<rect x="155.75" y="32.8" width="98.3" height="16.4"/>
	</g>
</g>
<g>
	<g>
		<rect x="188.55" y="458.8" width="32.8" height="16.4"/>
	</g>
</g>
<g>
	<g>
		<rect x="122.95" y="32.8" width="16.4" height="16.4"/>
	</g>
</g>
<g>
	<g>
		<path d="M360.55,116.3V41c0-22.6-18.4-41-41-41H90.15c-22.6,0-41,18.4-41,41v426c0,22.6,18.4,41,41,41h229.4c22.6,0,41-18.4,41-41
			V276.9c56-7.6,98.3-40.7,98.3-80.3C458.85,157,416.55,123.9,360.55,116.3z M65.55,41c0-13.6,11.1-24.6,24.6-24.6h229.4
			c13.6,0,24.6,11,24.6,24.6v24.6H65.55V41z M344.15,467c0,13.6-11,24.6-24.6,24.6H90.15c-13.6,0-24.6-11-24.6-24.6v-24.6h278.6V467
			z M344.15,426.1H65.55V81.9h278.6v33c-2.7-0.1-5.4-0.3-8.2-0.3c-67.8,0-122.9,36.8-122.9,81.9c0,21.6,12.8,42.3,35.3,57.5
			l-13.4,60.3l56.5-41.4c14.3,3.7,29.2,5.5,44.5,5.5c2.8,0,5.5-0.2,8.2-0.3V426.1z M335.95,262.2c-26.2,0-47.8-7.1-47.8-7.1
			l-27.8,20.4l6.5-29.1c0,0-37.4-18.1-37.4-49.8c0-36.1,47.8-65.5,106.5-65.5s106.5,29.4,106.5,65.5
			C442.45,232.7,394.75,262.2,335.95,262.2z"/>
	</g>
</g>
<g>
	<g>
		<path d="M90.15,311.4v81.9h81.9v-81.9H90.15z M155.75,376.9h-49.2v-49.2h49.2V376.9z"/>
	</g>
</g>
<g>
	<g>
		<path d="M90.15,114.7v81.9h81.9v-81.9H90.15z M155.75,180.3h-49.2v-49.2h49.2V180.3z"/>
	</g>
</g>
<g>
	<g>
		<rect x="196.65" y="360.5" width="122.9" height="16.4"/>
	</g>
</g>
<g>
	<g>
		<rect x="270.45" y="172.1" width="131.1" height="16.4"/>
	</g>
</g>
<g>
	<g>
		<rect x="327.75" y="204.8" width="16.4" height="16.4"/>
	</g>
</g>
<g>
	<g>
		<rect x="360.55" y="204.8" width="16.4" height="16.4"/>
	</g>
</g>
<g>
	<g>
		<rect x="295.05" y="204.8" width="16.4" height="16.4"/>
	</g>
</g>
<g>
</g>
<g>
</g>
<g>
</g>
<g>
</g>
<g>
</g>
<g>
</g>
<g>
</g>
<g>
</g>
<g>
</g>
<g>
</g>
<g>
</g>
<g>
</g>
<g>
</g>
<g>
</g>
<g>
</g>
</svg>
