<svg height="512" viewBox="0 0 64 64" width="512" style="fill:#fff;" xmlns="http://www.w3.org/2000/svg"><g id="Smartphone-Graphic-Design-App-Gear"><path d="m46 2h-28a6.006 6.006 0 0 0 -6 6v48a6.006 6.006 0 0 0 6 6h28a6.006 6.006 0 0 0 6-6v-48a6.006 6.006 0 0 0 -6-6zm4 54a4 4 0 0 1 -4 4h-28a4 4 0 0 1 -4-4v-48a4 4 0 0 1 4-4h28a4 4 0 0 1 4 4z"/><path d="m34 52h-4a3 3 0 0 0 0 6h4a3 3 0 0 0 0-6zm0 4h-4a1 1 0 0 1 0-2h4a1 1 0 0 1 0 2z"/><path d="m25 6h2v2h-2z"/><path d="m29 6h6v2h-6z"/><path d="m45.142 33.01-2.682-.383a10.86 10.86 0 0 0 -.679-1.639l1.625-2.166a1 1 0 0 0 -.093-1.307l-2.828-2.828a1 1 0 0 0 -1.306-.093l-2.684 2.012 1.2 1.6 1.991-1.492 1.6 1.6-1.492 1.99a1 1 0 0 0 -.061 1.111 8.923 8.923 0 0 1 .977 2.357 1 1 0 0 0 .827.742l2.463.353v2.266l-2.463.352a1 1 0 0 0 -.827.742 8.923 8.923 0 0 1 -.977 2.357 1 1 0 0 0 .061 1.111l1.492 1.99-1.6 1.6-1.991-1.492a1 1 0 0 0 -1.11-.06 8.859 8.859 0 0 1 -2.356.975 1 1 0 0 0 -.744.828l-.352 2.464h-2.266l-.351-2.463a1 1 0 0 0 -.744-.828 8.859 8.859 0 0 1 -2.356-.975 1 1 0 0 0 -1.11.06l-1.991 1.492-1.6-1.6 1.492-1.99a1 1 0 0 0 .061-1.111 8.923 8.923 0 0 1 -.977-2.357 1 1 0 0 0 -.827-.742l-2.464-.353v-2.266l2.463-.352a1 1 0 0 0 .827-.742 8.923 8.923 0 0 1 .977-2.357 1 1 0 0 0 -.061-1.111l-1.492-1.99 1.6-1.6 1.991 1.492 1.2-1.6-2.684-2.012a1 1 0 0 0 -1.306.093l-2.828 2.828a1 1 0 0 0 -.093 1.307l1.625 2.166a10.86 10.86 0 0 0 -.679 1.639l-2.682.383a1 1 0 0 0 -.858.989v4a1 1 0 0 0 .858.99l2.682.383a10.86 10.86 0 0 0 .679 1.639l-1.625 2.166a1 1 0 0 0 .093 1.307l2.828 2.828a1 1 0 0 0 1.306.093l2.167-1.624a10.855 10.855 0 0 0 1.639.678l.383 2.682a1 1 0 0 0 .99.858h4a1 1 0 0 0 .99-.858l.383-2.682a10.855 10.855 0 0 0 1.639-.678l2.167 1.624a1 1 0 0 0 1.306-.093l2.828-2.828a1 1 0 0 0 .093-1.307l-1.625-2.166a10.86 10.86 0 0 0 .679-1.639l2.682-.383a1 1 0 0 0 .858-.99v-4a1 1 0 0 0 -.858-.99z"/><path d="m26.5 33.6a6 6 0 1 0 11 0l-1.832.8a4 4 0 1 1 -7.336 0z"/><path d="m40 14h6v2h-6z"/><path d="m40 18h6v2h-6z"/><path d="m18 14h6v2h-6z"/><path d="m18 18h6v2h-6z"/><path d="m28.571 20.379a2.978 2.978 0 0 0 .429 5.437v10.184a1 1 0 0 0 1 1h4a1 1 0 0 0 1-1v-10.184a2.978 2.978 0 0 0 .429-5.437l1.471-2.932a1 1 0 0 0 -.063-1l-4-6a1.039 1.039 0 0 0 -1.664 0l-4 6a1 1 0 0 0 -.063 1zm2.429 14.621v-9h2v9zm3-11h-4a1 1 0 0 1 0-2h4a1 1 0 0 1 0 2zm-3-9.7v3.7h2v-3.7l1.846 2.769-1.464 2.931h-2.764l-1.464-2.928z"/></g></svg>