<?xml version="1.0" encoding="utf-8"?>
<!-- Generator: Adobe Illustrator 16.0.0, SVG Export Plug-In . SVG Version: 6.00 Build 0)  -->
<!DOCTYPE svg PUBLIC "-//W3C//DTD SVG 1.1//EN" "http://www.w3.org/Graphics/SVG/1.1/DTD/svg11.dtd">
<svg version="1.1" id="Layer_1" xmlns="http://www.w3.org/2000/svg" xmlns:xlink="http://www.w3.org/1999/xlink" x="0px" y="0px"
	 width="960px" height="560px" viewBox="0 0 960 560" enable-background="new 0 0 960 560" xml:space="preserve">
<path d="M225,280.666v245.666h491.332V35H225V280.666z M526.324,272.03v22.072h-63.335v201.523h-51.82V294.102h-63.336v-44.144
	h178.491V272.03z M651.078,252.645c7.869,1.536,16.697,3.647,19.768,4.798l5.182,2.111v23.99c0,13.244-0.383,23.99-0.768,23.99
	c-0.383,0-4.414-2.109-9.02-4.605c-17.273-9.789-44.912-13.436-61.801-8.445c-4.031,1.152-9.98,4.799-13.051,7.869
	c-4.607,4.414-5.566,7.102-5.566,14.203c0,7.678,0.959,9.789,7.293,15.738c4.031,3.838,19.002,12.666,33.588,19.961
	c30.709,15.162,46.254,28.02,53.355,43.951c6.334,14.201,6.525,44.143,0.385,57.578c-5.758,12.666-18.426,25.525-30.9,31.475
	c-26.486,12.477-69.67,13.627-103.449,2.496l-12.092-4.031v-53.355l9.596,6.91c12.477,9.02,28.598,14.586,45.488,15.738
	c16.889,1.15,29.363-1.92,37.041-9.213c4.799-4.414,5.758-6.91,5.758-14.203c0-14.01-8.061-21.305-41.072-37.426
	c-29.174-14.395-38.385-20.92-47.021-33.588c-19.193-27.828-13.436-70.436,12.283-89.821
	C577.953,252.069,614.229,245.928,651.078,252.645z"/>
</svg>
